<svg id="visual" viewBox="0 0 1920 1080" width="1920" height="1080" xmlns="http://www.w3.org/2000/svg" xmlns:xlink="http://www.w3.org/1999/xlink" version="1.1"><rect x="0" y="0" width="1920" height="1080" fill="#EDE9DF"></rect><path d="M0 374L53.3 367C106.7 360 213.3 346 320 326C426.7 306 533.3 280 640 264.5C746.7 249 853.3 244 960 247.8C1066.7 251.7 1173.3 264.3 1280 267C1386.7 269.7 1493.3 262.3 1600 276.3C1706.7 290.3 1813.3 325.7 1866.7 343.3L1920 361L1920 0L1866.7 0C1813.3 0 1706.7 0 1600 0C1493.3 0 1386.7 0 1280 0C1173.3 0 1066.7 0 960 0C853.3 0 746.7 0 640 0C533.3 0 426.7 0 320 0C213.3 0 106.7 0 53.3 0L0 0Z" fill="#f45050"></path><path d="M0 198L53.3 213.2C106.7 228.3 213.3 258.7 320 274C426.7 289.3 533.3 289.7 640 282C746.7 274.3 853.3 258.7 960 237.7C1066.7 216.7 1173.3 190.3 1280 199C1386.7 207.7 1493.3 251.3 1600 269.3C1706.7 287.3 1813.3 279.7 1866.7 275.8L1920 272L1920 0L1866.7 0C1813.3 0 1706.7 0 1600 0C1493.3 0 1386.7 0 1280 0C1173.3 0 1066.7 0 960 0C853.3 0 746.7 0 640 0C533.3 0 426.7 0 320 0C213.3 0 106.7 0 53.3 0L0 0Z" fill="#a88500"></path><path d="M0 114L53.3 124.2C106.7 134.3 213.3 154.7 320 168.7C426.7 182.7 533.3 190.3 640 176.3C746.7 162.3 853.3 126.7 960 112.7C1066.7 98.7 1173.3 106.3 1280 122.3C1386.7 138.3 1493.3 162.7 1600 179C1706.7 195.3 1813.3 203.7 1866.7 207.8L1920 212L1920 0L1866.7 0C1813.3 0 1706.7 0 1600 0C1493.3 0 1386.7 0 1280 0C1173.3 0 1066.7 0 960 0C853.3 0 746.7 0 640 0C533.3 0 426.7 0 320 0C213.3 0 106.7 0 53.3 0L0 0Z" fill="#389a4c"></path></svg>